<svg width="128" height="64" viewBox="0 0 128 64" fill="none" xmlns="http://www.w3.org/2000/svg">
<g id="Arrows" clip-path="url(#clip0_156_6)">
<path id="Back" d="M41.5 29.4019C43.5 30.5566 43.5 33.4434 41.5 34.5981L5.5 55.3827C3.5 56.5374 0.999998 55.094 0.999998 52.7846L1 11.2154C1 8.90599 3.5 7.46261 5.5 8.61731L41.5 29.4019Z" fill="#00FF85" fill-opacity="0.6"/>
<path id="Mid" d="M63.5 29.4019C65.5 30.5566 65.5 33.4434 63.5 34.5981L27.5 55.3827C25.5 56.5374 23 55.094 23 52.7846L23 11.2154C23 8.90599 25.5 7.46261 27.5 8.61731L63.5 29.4019Z" fill="#00F0FF" fill-opacity="0.6"/>
<path id="Mid_2" d="M114.5 29.4019C116.5 30.5566 116.5 33.4434 114.5 34.5981L78.5 55.3827C76.5 56.5374 74 55.094 74 52.7846L74 11.2154C74 8.90599 76.5 7.46261 78.5 8.61731L114.5 29.4019Z" fill="#00F0FF" fill-opacity="0.6"/>
<path id="Front" d="M89.5 29.4019C91.5 30.5566 91.5 33.4434 89.5 34.5981L53.5 55.3827C51.5 56.5374 49 55.094 49 52.7846L49 11.2154C49 8.90599 51.5 7.46261 53.5 8.61731L89.5 29.4019Z" fill="#00FF85" fill-opacity="0.6"/>
</g>
<defs>
<clipPath id="clip0_156_6">
<rect width="128" height="64" fill="white"/>
</clipPath>
</defs>
</svg>
