<?xml version="1.0" encoding="UTF-8" standalone="no"?>
<!-- Created with Inkscape (http://www.inkscape.org/) -->

<svg
   width="128.00002"
   height="128.00002"
   viewBox="0 0 33.866668 33.866668"
   version="1.1"
   id="svg5"
   inkscape:version="1.1 (c68e22c387, 2021-05-23)"
   sodipodi:docname="profile_clipart_bee.svg"
   xmlns:inkscape="http://www.inkscape.org/namespaces/inkscape"
   xmlns:sodipodi="http://sodipodi.sourceforge.net/DTD/sodipodi-0.dtd"
   xmlns="http://www.w3.org/2000/svg"
   xmlns:svg="http://www.w3.org/2000/svg">
  <sodipodi:namedview
     id="namedview7"
     pagecolor="#ffffff"
     bordercolor="#666666"
     borderopacity="1.0"
     inkscape:pageshadow="2"
     inkscape:pageopacity="0.0"
     inkscape:pagecheckerboard="0"
     inkscape:document-units="mm"
     showgrid="false"
     fit-margin-top="0"
     fit-margin-left="0"
     fit-margin-right="0"
     fit-margin-bottom="0"
     inkscape:zoom="5.3664983"
     inkscape:cx="57.206764"
     inkscape:cy="65.312608"
     inkscape:window-width="1920"
     inkscape:window-height="1017"
     inkscape:window-x="-8"
     inkscape:window-y="-8"
     inkscape:window-maximized="1"
     inkscape:current-layer="layer3"
     units="px" />
  <defs
     id="defs2" />
  <g
     inkscape:groupmode="layer"
     id="layer3"
     inkscape:label="Bee">
    <g
       id="g17569">
      <path
         id="rect10153"
         style="font-variation-settings:'wght' 400;fill:#8f8f8f;stroke-width:1.32292;fill-opacity:1"
         d="M 16.845129,14.629794 17.926369,8.0261556 C 18.252851,6.2470836 21.87071,7.3553063 21.256523,8.9321479 L 18.713092,14.524849"
         sodipodi:nodetypes="cccc" />
      <path
         id="path10543"
         style="font-variation-settings:'wght' 400;fill:#8f8f8f;stroke-width:1.32292;fill-opacity:1"
         d="M 16.696279,14.534031 15.771906,7.9066142 C 15.487695,6.1203021 11.844579,7.1424391 12.421209,8.733399 L 14.83133,14.384829"
         sodipodi:nodetypes="cccc" />
      <path
         id="path8944"
         style="font-variation-settings:'wght' 400;stroke:#000000;stroke-width:0.475741;stroke-miterlimit:4;stroke-dasharray:none"
         d="M 25.50185,18.539791 C 22.785217,19.757472 20.037173,22.577276 15.950067,22.320687 11.862961,22.064097 8.7398382,19.906783 8.9743782,17.502191 9.2089182,15.097598 12.712305,13.356298 16.799411,13.612887 20.886518,13.869478 23.00663,16.640818 25.50185,18.539791 Z"
         sodipodi:nodetypes="csssc" />
      <path
         id="path10545"
         style="font-variation-settings:'wght' 400;fill:#e8ed1a;fill-opacity:1;stroke:none;stroke-width:1.18935;stroke-opacity:1"
         d="M 16.333015,13.592896 C 17.352899,16.344711 17.504517,19.743613 16.916542,22.323371 17.214763,22.307151 17.505252,22.273624 17.789498,22.22766 18.361741,19.796819 18.223836,16.275527 17.220495,13.649491 17.082285,13.634513 16.942237,13.621843 16.799318,13.612871 16.642823,13.603046 16.487651,13.596922 16.333015,13.592896 Z M 14.955892,13.632429 C 14.605627,13.662464 14.263659,13.707232 13.931997,13.766008 15.008,16.496305 15.198877,19.644307 14.588141,22.159831 14.906139,22.215396 15.232761,22.259215 15.566391,22.290497 16.140944,19.83007 15.990987,16.262025 14.955892,13.632429 Z M 18.710692,13.942865 C 19.549929,16.479444 19.688789,19.479962 19.222121,21.871867 19.630952,21.735287 20.025195,21.572838 20.408885,21.395394 20.732645,19.270537 20.592073,16.597108 19.905755,14.388959 19.526686,14.216905 19.131272,14.064457 18.710692,13.942865 Z M 12.658612,14.075195 C 10.576772,14.728107 9.1225882,15.982293 8.9743532,17.502052 8.7939922,19.351183 10.599511,21.053795 13.301788,21.85855 13.817992,19.564715 13.638198,16.578816 12.658612,14.075195 Z M 21.520957,15.306117 C 21.922147,17.060437 22.026559,18.938657 21.860181,20.633454 22.221743,20.424396 22.57328,20.210514 22.919866,19.997603 22.950763,18.717478 22.838266,17.359239 22.567675,16.085951 22.230062,15.815385 21.882894,15.552881 21.520957,15.306117 Z M 24.156424,17.430477 C 24.228359,18.012427 24.269959,18.597414 24.282465,19.175323 24.692559,18.938915 25.097779,18.721031 25.501906,18.539888 25.046118,18.193013 24.601724,17.814631 24.156424,17.430477 Z" />
      <path
         style="font-variation-settings:'wght' 400;fill:none;fill-opacity:1;stroke:#888b0b;stroke-width:0.264583;stroke-linecap:round;stroke-linejoin:round;stroke-miterlimit:4;stroke-dasharray:none;stroke-opacity:1"
         d="M 9.7954886,18.682554 C 10.635888,19.587985 11.337262,19.751036 12.383885,19.076977"
         id="path14177"
         sodipodi:nodetypes="cc" />
      <g
         id="g17222"
         transform="translate(-1.3422,1.6908233)">
        <ellipse
           style="font-variation-settings:'wght' 400;fill:#000000;fill-opacity:1;stroke:none;stroke-width:0.529167;stroke-linecap:round;stroke-linejoin:round;stroke-miterlimit:4;stroke-dasharray:none;stroke-opacity:1"
           id="path15899"
           cx="11.844995"
           cy="15.46875"
           rx="0.53000498"
           ry="0.89977586" />
        <path
           id="ellipse16151"
           style="font-variation-settings:'wght' 400;fill:#ffffff;fill-opacity:0.293423;stroke-width:0.443024;stroke-linecap:round;stroke-linejoin:round"
           d="M 11.844995,14.715449 C 12.090058,14.715449 12.28872,15.052713 12.28872,15.46875 12.246428,15.147109 12.084329,14.764691 11.844995,14.715449 Z"
           sodipodi:nodetypes="ccc" />
      </g>
      <g
         id="g17228"
         transform="translate(0.03827812,1.6784976)">
        <ellipse
           style="font-variation-settings:'wght' 400;fill:#000000;fill-opacity:1;stroke:none;stroke-width:0.529167;stroke-linecap:round;stroke-linejoin:round;stroke-miterlimit:4;stroke-dasharray:none;stroke-opacity:1"
           id="ellipse17224"
           cx="11.844995"
           cy="15.46875"
           rx="0.53000498"
           ry="0.89977586" />
        <path
           id="path17226"
           style="font-variation-settings:'wght' 400;fill:#ffffff;fill-opacity:0.293423;stroke-width:0.443024;stroke-linecap:round;stroke-linejoin:round"
           d="M 11.844995,14.715449 C 12.090058,14.715449 12.28872,15.052713 12.28872,15.46875 12.246428,15.147109 12.084329,14.764691 11.844995,14.715449 Z"
           sodipodi:nodetypes="ccc" />
      </g>
      <path
         style="font-variation-settings:'wght' 400;fill:none;fill-opacity:0.293423;stroke:#888b0b;stroke-width:0.264583;stroke-linecap:round;stroke-linejoin:round;stroke-miterlimit:4;stroke-dasharray:none;stroke-opacity:1"
         d="M 11.020311,15.669509 C 10.575837,13.499655 9.7976166,12.18295 8.345447,12.589059"
         id="path17263"
         sodipodi:nodetypes="cc" />
      <path
         style="font-variation-settings:'wght' 400;fill:none;fill-opacity:0.293423;stroke:#888b0b;stroke-width:0.264583;stroke-linecap:round;stroke-linejoin:round;stroke-miterlimit:4;stroke-dasharray:none;stroke-opacity:1"
         d="M 11.920428,15.382901 C 12.084568,13.174082 11.694941,11.695051 10.187064,11.689728"
         id="path17536"
         sodipodi:nodetypes="cc" />
    </g>
  </g>
  <g
     inkscape:label="Tree"
     inkscape:groupmode="layer"
     id="layer1"
     transform="translate(-21.186756)"
     style="display:none">
    <g
       id="g8036"
       transform="matrix(0.46726221,0,0,0.46726221,12.926964,3.5503294)"
       style="display:inline">
      <path
         style="font-variation-settings:'wght' 400;fill:#2b1100;stroke:#ffffff;stroke-width:0"
         d="M 64.882131,63.999383 C 55.032817,56.578508 56.076253,38.518236 62.895943,28.689379 63.263627,24.604718 58.727848,31.461514 56.05463,34.647941 56.46923,30.138645 55.890083,23.702628 58.261505,20.082567 57.474392,19.20439 55.636844,19.107366 54.730505,19.861879 55.300591,24.89998 53.915062,28.942255 52.192598,32.992789 49.671206,30.086044 49.173777,28.015201 49.213317,25.379067 48.367675,25.012342 45.310305,22.702822 46.785754,26.703192 48.261203,30.703559 54.133344,55.371554 41.709941,63.999383 Z"
         id="path987"
         sodipodi:nodetypes="ccccccczcc" />
      <circle
         style="font-variation-settings:'wght' 400;fill:#008000;stroke:#ffffff;stroke-width:0"
         id="path846"
         cx="42.482346"
         cy="21.29635"
         r="10.703345" />
      <circle
         style="font-variation-settings:'wght' 400;fill:#008b00;fill-opacity:1;stroke:#ffffff;stroke-width:0"
         id="path872"
         cx="66.868309"
         cy="25.82044"
         r="7.2826881" />
      <path
         sodipodi:type="spiral"
         style="fill:none;fill-rule:evenodd;stroke:#006600;stroke-opacity:1"
         id="path2238"
         sodipodi:cx="57.975792"
         sodipodi:cy="69.570946"
         sodipodi:expansion="1"
         sodipodi:revolution="7.0704451"
         sodipodi:radius="39.280712"
         sodipodi:argument="-17.884304"
         sodipodi:t0="0.0054022851"
         transform="matrix(0.26458333,0,0,0.26458333,26.206176,2.9284363)"
         d="M 58.051647,69.76913 C 58.16667,70.648879 56.890954,70.489507 56.48047,70.143281 55.391114,69.224457 55.919274,67.534143 56.906976,66.778486 58.599327,65.483729 61.000005,66.324295 62.065389,68.00565 63.599853,70.427295 62.417845,73.602198 60.037568,74.95768 56.898426,76.745307 52.929785,75.211198 51.291921,72.129202 49.244827,68.277151 51.135777,63.506305 54.921056,61.589937 59.483797,59.279964 65.061309,61.530236 67.253938,66.019729 69.828835,71.291932 67.217792,77.678756 62.023488,80.146229 56.042576,82.987368 48.844734,80.014634 46.103372,74.115122 42.995093,67.425992 46.330134,59.415966 52.935135,56.401388 60.332145,53.025331 69.155186,56.723115 72.442487,64.033809 76.086794,72.138456 72.025948,81.775127 64.009409,85.334778 55.197305,89.247691 44.746537,84.823545 40.914822,76.101043 36.733027,66.581619 41.520659,55.31639 50.949215,51.212839 61.175851,46.761943 73.255831,51.913205 77.631036,62.047888 82.351209,72.981652 76.836199,85.876617 65.99533,90.523327 54.354507,95.512921 40.644366,89.634068 35.726273,78.086964 30.46714,65.739138 36.709914,51.213663 48.963294,46.02429 62.018075,40.495518 77.359018,47.102278 82.819585,60.061968 88.618079,73.823666 81.647278,89.980189 67.98125,95.711876 53.512668,101.78016 36.540469,94.445275 30.537724,80.072884 24.19958,64.897447 31.898598,47.109488 46.977373,40.83574 62.859642,34.227688 81.463433,42.290869 88.008135,58.076047 94.886142,74.665125 86.458767,94.084811 69.967171,100.90043 52.671301,108.04843 32.435666,99.256834 25.349175,82.058805 17.93114,64.05616 27.086978,43.004526 44.991453,35.647191 63.700859,27.959093 85.568535,37.479195 93.196684,56.090127 101.15487,75.506281 91.270489,98.190037 71.953091,106.08897 69.50224,107.09113 66.949739,107.84329 64.347329,108.33147" />
      <path
         sodipodi:type="spiral"
         style="fill:none;fill-rule:evenodd;stroke:#007e00;stroke-opacity:1"
         id="path3628"
         sodipodi:cx="57.975792"
         sodipodi:cy="69.570946"
         sodipodi:expansion="1"
         sodipodi:revolution="4.722023"
         sodipodi:radius="26.233776"
         sodipodi:argument="-17.884304"
         sodipodi:t0="0.0080890227"
         transform="matrix(0.26458333,0,0,0.26458333,51.739722,7.8091633)"
         d="M 58.051647,69.76913 C 58.16667,70.648879 56.890954,70.489507 56.48047,70.143281 55.391114,69.224457 55.919273,67.534142 56.906976,66.778486 58.599327,65.483728 61.000006,66.324294 62.065389,68.005649 63.599855,70.427295 62.417846,73.602199 60.037569,74.957681 56.898426,76.745308 52.929784,75.2112 51.291919,72.129203 49.244825,68.277152 51.135775,63.506304 54.921055,61.589935 59.483797,59.279961 65.06131,61.530233 67.25394,66.019728 69.828838,71.291932 67.217794,77.678758 62.02349,80.146231 56.042577,82.987371 48.844732,80.014638 46.103369,74.115124 42.995089,67.425992 46.330131,59.415964 52.935133,56.401385 60.332145,53.025326 69.155188,56.723111 72.44249,64.033807 76.086798,72.138456 72.025952,81.775129 64.009411,85.334782 55.197305,89.247696 44.746534,84.823549 40.914819,76.101045 36.733022,66.58162 41.520654,55.316387 50.949212,51.212835 61.17585,46.761937 73.255834,51.9132 77.631041,62.047885 82.351215,72.981651 76.836204,85.87662 65.995333,90.523332 54.354508,95.512927 40.644363,89.634074 35.726268,78.086967 30.467133,65.739139 36.709908,51.21366 48.96329,46.024284 58.267406,42.08394 69.270297,44.187546 76.601201,51.0965" />
      <circle
         style="font-variation-settings:'wght' 400;fill:#007400;fill-opacity:1;stroke:#ffffff;stroke-width:0"
         id="path870"
         cx="57.268414"
         cy="12.910218"
         r="12.910219" />
      <path
         sodipodi:type="spiral"
         style="fill:none;fill-rule:evenodd;stroke:#005b00;stroke-opacity:1"
         id="path3509"
         sodipodi:cx="57.975792"
         sodipodi:cy="69.570946"
         sodipodi:expansion="1"
         sodipodi:revolution="8.6418238"
         sodipodi:radius="48.010696"
         sodipodi:argument="-17.884304"
         sodipodi:t0="0.0044199647"
         transform="matrix(0.26458333,0,0,0.26458333,41.963952,-5.1596258)"
         d="M 58.051647,69.76913 C 58.16667,70.648879 56.890954,70.489507 56.48047,70.143281 55.391115,69.224457 55.919274,67.534143 56.906976,66.778486 58.599327,65.483729 61.000005,66.324295 62.065388,68.00565 63.599853,70.427295 62.417845,73.602198 60.037568,74.95768 56.898426,76.745307 52.929785,75.211198 51.291921,72.129202 49.244827,68.277152 51.135777,63.506306 54.921056,61.589937 59.483797,59.279964 65.061308,61.530236 67.253938,66.019729 69.828835,71.291932 67.217792,77.678756 62.023489,80.146229 56.042577,82.987368 48.844734,80.014635 46.103372,74.115123 42.995093,67.425992 46.330134,59.415966 52.935135,56.401388 60.332145,53.02533 69.155186,56.723115 72.442487,64.033808 76.086794,72.138456 72.025949,81.775126 64.009409,85.334778 55.197305,89.247691 44.746537,84.823545 40.914823,76.101043 36.733027,66.58162 41.520659,55.31639 50.949214,51.212839 61.17585,46.761943 73.255831,51.913205 77.631036,62.047888 82.351209,72.981651 76.836199,85.876616 65.99533,90.523327 54.354508,95.512921 40.644367,89.634068 35.726273,78.086964 30.46714,65.739139 36.709914,51.213664 48.963293,46.02429 62.018074,40.495518 77.359017,47.102278 82.819585,60.061967 88.618079,73.823665 81.647278,89.980188 67.981251,95.711876 53.512669,101.78016 36.54047,94.445275 30.537724,80.072885 24.19958,64.897448 31.898598,47.109488 46.977373,40.835741 62.859641,34.227688 81.463432,42.290869 88.008134,58.076046 94.886142,74.665124 86.458768,94.08481 69.967171,100.90043 52.671302,108.04843 32.435667,99.256835 25.349175,82.058805 17.93114,64.056161 27.086978,43.004527 44.991452,35.647192 63.700858,27.959093 85.568534,37.479195 93.196683,56.090126 101.15487,75.50628 91.270489,98.190036 71.953092,106.08897 51.830201,114.31728 28.33033,104.0686 20.160626,84.044726 11.662179,63.215108 22.275176,38.899091 43.005531,30.458643 64.541868,21.690036 89.674059,32.667359 98.385232,54.104205 107.42402,76.347251 96.082356,102.29564 73.939013,111.27752 50.989265,120.5865 24.224652,108.88049 14.972077,86.030647 5.3928864,62.374203 17.463257,34.793347 41.019611,25.270093 50.657241,21.373837 61.476296,20.76108 71.500182,23.504496" />
      <path
         style="font-variation-settings:'wght' 400;fill:none;fill-opacity:1;stroke:#200c00;stroke-width:0.264583;stroke-miterlimit:4;stroke-dasharray:none;stroke-opacity:1"
         d="M 49.494218,33.467841 C 52.597338,43.802178 50.792012,53.298488 46.286882,62.333856"
         id="path5650"
         sodipodi:nodetypes="cc" />
      <path
         style="font-variation-settings:'wght' 400;fill:none;fill-opacity:1;stroke:#200c00;stroke-width:0.264583;stroke-miterlimit:4;stroke-dasharray:none;stroke-opacity:1"
         d="M 57.791454,36.535727 C 56.532274,43.360167 53.304145,45.091054 59.952918,63.100827"
         id="path7301"
         sodipodi:nodetypes="cc" />
      <path
         style="font-variation-settings:'wght' 400;fill:none;fill-opacity:1;stroke:#200c00;stroke-width:0.264583;stroke-miterlimit:4;stroke-dasharray:none;stroke-opacity:1"
         d="M 50.191465,31.864174 C 54.401502,45.252337 52.327692,58.42937 50.191464,62.752204"
         id="path7436"
         sodipodi:nodetypes="cc" />
      <path
         style="font-variation-settings:'wght' 400;fill:none;fill-opacity:1;stroke:#200c00;stroke-width:0.264583;stroke-miterlimit:4;stroke-dasharray:none;stroke-opacity:1"
         d="M 54.305221,31.655 C 52.988521,50.005947 55.328772,61.905867 56.675859,63.100827"
         id="path7780"
         sodipodi:nodetypes="cc" />
    </g>
  </g>
  <g
     inkscape:groupmode="layer"
     id="layer2"
     inkscape:label="Border"
     transform="translate(-21.186756)"
     style="display:inline">
    <rect
       style="font-variation-settings:'wght' 400;fill:none;fill-opacity:1;stroke:#4db39c;stroke-width:2.5011;stroke-miterlimit:4;stroke-dasharray:none;stroke-opacity:1"
       id="rect8140"
       width="31.365568"
       height="31.365568"
       x="22.437305"
       y="1.2505482"
       ry="4.999999" />
  </g>
</svg>
