<?xml version="1.0" encoding="UTF-8" standalone="no"?>
<!-- Created with Inkscape (http://www.inkscape.org/) -->

<svg
   width="128.00002"
   height="128.00002"
   viewBox="0 0 33.866668 33.866668"
   version="1.1"
   id="svg5"
   inkscape:version="1.1 (c68e22c387, 2021-05-23)"
   sodipodi:docname="profile_clipart.svg"
   xmlns:inkscape="http://www.inkscape.org/namespaces/inkscape"
   xmlns:sodipodi="http://sodipodi.sourceforge.net/DTD/sodipodi-0.dtd"
   xmlns="http://www.w3.org/2000/svg"
   xmlns:svg="http://www.w3.org/2000/svg">
  <sodipodi:namedview
     id="namedview7"
     pagecolor="#ffffff"
     bordercolor="#666666"
     borderopacity="1.0"
     inkscape:pageshadow="2"
     inkscape:pageopacity="0.0"
     inkscape:pagecheckerboard="0"
     inkscape:document-units="mm"
     showgrid="false"
     fit-margin-top="0"
     fit-margin-left="0"
     fit-margin-right="0"
     fit-margin-bottom="0"
     inkscape:zoom="2.6832492"
     inkscape:cx="61.11993"
     inkscape:cy="95.593061"
     inkscape:window-width="1920"
     inkscape:window-height="1017"
     inkscape:window-x="-8"
     inkscape:window-y="-8"
     inkscape:window-maximized="1"
     inkscape:current-layer="g8686"
     units="px" />
  <defs
     id="defs2" />
  <g
     inkscape:label="Layer 1"
     inkscape:groupmode="layer"
     id="layer1"
     transform="translate(-21.186756)">
    <g
       id="g8686"
       transform="matrix(1.9999997,0,0,1.9999997,-21.185193,1.6096644e-6)">
      <g
         id="g8036"
         transform="matrix(0.23363114,0,0,0.23363114,17.056081,1.7751642)">
        <path
           style="font-variation-settings:'wght' 400;fill:#2b1100;stroke:#ffffff;stroke-width:0"
           d="M 64.882131,63.999383 C 55.032817,56.578508 56.076253,38.518236 62.895943,28.689379 63.263627,24.604718 58.727848,31.461514 56.05463,34.647941 56.46923,30.138645 55.890083,23.702628 58.261505,20.082567 57.474392,19.20439 55.636844,19.107366 54.730505,19.861879 55.300591,24.89998 53.915062,28.942255 52.192598,32.992789 49.671206,30.086044 49.173777,28.015201 49.213317,25.379067 48.367675,25.012342 45.310305,22.702822 46.785754,26.703192 48.261203,30.703559 54.133344,55.371554 41.709941,63.999383 Z"
           id="path987"
           sodipodi:nodetypes="ccccccczcc" />
        <circle
           style="font-variation-settings:'wght' 400;fill:#008000;stroke:#ffffff;stroke-width:0"
           id="path846"
           cx="42.482346"
           cy="21.29635"
           r="10.703345" />
        <circle
           style="font-variation-settings:'wght' 400;fill:#008b00;fill-opacity:1;stroke:#ffffff;stroke-width:0"
           id="path872"
           cx="66.868309"
           cy="25.82044"
           r="7.2826881" />
        <path
           sodipodi:type="spiral"
           style="fill:none;fill-rule:evenodd;stroke:#006600;stroke-opacity:1"
           id="path2238"
           sodipodi:cx="57.975792"
           sodipodi:cy="69.570946"
           sodipodi:expansion="1"
           sodipodi:revolution="7.0704451"
           sodipodi:radius="39.280712"
           sodipodi:argument="-17.884304"
           sodipodi:t0="0.0054022851"
           transform="matrix(0.26458333,0,0,0.26458333,26.206176,2.9284363)"
           d="M 58.051647,69.76913 C 58.16667,70.648879 56.890954,70.489507 56.48047,70.143281 55.391114,69.224457 55.919274,67.534143 56.906976,66.778486 58.599327,65.483729 61.000005,66.324295 62.065389,68.00565 63.599853,70.427295 62.417845,73.602198 60.037568,74.95768 56.898426,76.745307 52.929785,75.211198 51.291921,72.129202 49.244827,68.277151 51.135777,63.506305 54.921056,61.589937 59.483797,59.279964 65.061309,61.530236 67.253938,66.019729 69.828835,71.291932 67.217792,77.678756 62.023488,80.146229 56.042576,82.987368 48.844734,80.014634 46.103372,74.115122 42.995093,67.425992 46.330134,59.415966 52.935135,56.401388 60.332145,53.025331 69.155186,56.723115 72.442487,64.033809 76.086794,72.138456 72.025948,81.775127 64.009409,85.334778 55.197305,89.247691 44.746537,84.823545 40.914822,76.101043 36.733027,66.581619 41.520659,55.31639 50.949215,51.212839 61.175851,46.761943 73.255831,51.913205 77.631036,62.047888 82.351209,72.981652 76.836199,85.876617 65.99533,90.523327 54.354507,95.512921 40.644366,89.634068 35.726273,78.086964 30.46714,65.739138 36.709914,51.213663 48.963294,46.02429 62.018075,40.495518 77.359018,47.102278 82.819585,60.061968 88.618079,73.823666 81.647278,89.980189 67.98125,95.711876 53.512668,101.78016 36.540469,94.445275 30.537724,80.072884 24.19958,64.897447 31.898598,47.109488 46.977373,40.83574 62.859642,34.227688 81.463433,42.290869 88.008135,58.076047 94.886142,74.665125 86.458767,94.084811 69.967171,100.90043 52.671301,108.04843 32.435666,99.256834 25.349175,82.058805 17.93114,64.05616 27.086978,43.004526 44.991453,35.647191 63.700859,27.959093 85.568535,37.479195 93.196684,56.090127 101.15487,75.506281 91.270489,98.190037 71.953091,106.08897 69.50224,107.09113 66.949739,107.84329 64.347329,108.33147" />
        <path
           sodipodi:type="spiral"
           style="fill:none;fill-rule:evenodd;stroke:#007e00;stroke-opacity:1"
           id="path3628"
           sodipodi:cx="57.975792"
           sodipodi:cy="69.570946"
           sodipodi:expansion="1"
           sodipodi:revolution="4.722023"
           sodipodi:radius="26.233776"
           sodipodi:argument="-17.884304"
           sodipodi:t0="0.0080890227"
           transform="matrix(0.26458333,0,0,0.26458333,51.739722,7.8091633)"
           d="M 58.051647,69.76913 C 58.16667,70.648879 56.890954,70.489507 56.48047,70.143281 55.391114,69.224457 55.919273,67.534142 56.906976,66.778486 58.599327,65.483728 61.000006,66.324294 62.065389,68.005649 63.599855,70.427295 62.417846,73.602199 60.037569,74.957681 56.898426,76.745308 52.929784,75.2112 51.291919,72.129203 49.244825,68.277152 51.135775,63.506304 54.921055,61.589935 59.483797,59.279961 65.06131,61.530233 67.25394,66.019728 69.828838,71.291932 67.217794,77.678758 62.02349,80.146231 56.042577,82.987371 48.844732,80.014638 46.103369,74.115124 42.995089,67.425992 46.330131,59.415964 52.935133,56.401385 60.332145,53.025326 69.155188,56.723111 72.44249,64.033807 76.086798,72.138456 72.025952,81.775129 64.009411,85.334782 55.197305,89.247696 44.746534,84.823549 40.914819,76.101045 36.733022,66.58162 41.520654,55.316387 50.949212,51.212835 61.17585,46.761937 73.255834,51.9132 77.631041,62.047885 82.351215,72.981651 76.836204,85.87662 65.995333,90.523332 54.354508,95.512927 40.644363,89.634074 35.726268,78.086967 30.467133,65.739139 36.709908,51.21366 48.96329,46.024284 58.267406,42.08394 69.270297,44.187546 76.601201,51.0965" />
        <circle
           style="font-variation-settings:'wght' 400;fill:#007400;fill-opacity:1;stroke:#ffffff;stroke-width:0"
           id="path870"
           cx="57.268414"
           cy="12.910218"
           r="12.910219" />
        <path
           sodipodi:type="spiral"
           style="fill:none;fill-rule:evenodd;stroke:#005b00;stroke-opacity:1"
           id="path3509"
           sodipodi:cx="57.975792"
           sodipodi:cy="69.570946"
           sodipodi:expansion="1"
           sodipodi:revolution="8.6418238"
           sodipodi:radius="48.010696"
           sodipodi:argument="-17.884304"
           sodipodi:t0="0.0044199647"
           transform="matrix(0.26458333,0,0,0.26458333,41.963952,-5.1596258)"
           d="M 58.051647,69.76913 C 58.16667,70.648879 56.890954,70.489507 56.48047,70.143281 55.391115,69.224457 55.919274,67.534143 56.906976,66.778486 58.599327,65.483729 61.000005,66.324295 62.065388,68.00565 63.599853,70.427295 62.417845,73.602198 60.037568,74.95768 56.898426,76.745307 52.929785,75.211198 51.291921,72.129202 49.244827,68.277152 51.135777,63.506306 54.921056,61.589937 59.483797,59.279964 65.061308,61.530236 67.253938,66.019729 69.828835,71.291932 67.217792,77.678756 62.023489,80.146229 56.042577,82.987368 48.844734,80.014635 46.103372,74.115123 42.995093,67.425992 46.330134,59.415966 52.935135,56.401388 60.332145,53.02533 69.155186,56.723115 72.442487,64.033808 76.086794,72.138456 72.025949,81.775126 64.009409,85.334778 55.197305,89.247691 44.746537,84.823545 40.914823,76.101043 36.733027,66.58162 41.520659,55.31639 50.949214,51.212839 61.17585,46.761943 73.255831,51.913205 77.631036,62.047888 82.351209,72.981651 76.836199,85.876616 65.99533,90.523327 54.354508,95.512921 40.644367,89.634068 35.726273,78.086964 30.46714,65.739139 36.709914,51.213664 48.963293,46.02429 62.018074,40.495518 77.359017,47.102278 82.819585,60.061967 88.618079,73.823665 81.647278,89.980188 67.981251,95.711876 53.512669,101.78016 36.54047,94.445275 30.537724,80.072885 24.19958,64.897448 31.898598,47.109488 46.977373,40.835741 62.859641,34.227688 81.463432,42.290869 88.008134,58.076046 94.886142,74.665124 86.458768,94.08481 69.967171,100.90043 52.671302,108.04843 32.435667,99.256835 25.349175,82.058805 17.93114,64.056161 27.086978,43.004527 44.991452,35.647192 63.700858,27.959093 85.568534,37.479195 93.196683,56.090126 101.15487,75.50628 91.270489,98.190036 71.953092,106.08897 51.830201,114.31728 28.33033,104.0686 20.160626,84.044726 11.662179,63.215108 22.275176,38.899091 43.005531,30.458643 64.541868,21.690036 89.674059,32.667359 98.385232,54.104205 107.42402,76.347251 96.082356,102.29564 73.939013,111.27752 50.989265,120.5865 24.224652,108.88049 14.972077,86.030647 5.3928864,62.374203 17.463257,34.793347 41.019611,25.270093 50.657241,21.373837 61.476296,20.76108 71.500182,23.504496" />
        <path
           style="font-variation-settings:'wght' 400;fill:none;fill-opacity:1;stroke:#200c00;stroke-width:0.264583;stroke-miterlimit:4;stroke-dasharray:none;stroke-opacity:1"
           d="M 49.494218,33.467841 C 52.597338,43.802178 50.792012,53.298488 46.286882,62.333856"
           id="path5650"
           sodipodi:nodetypes="cc" />
        <path
           style="font-variation-settings:'wght' 400;fill:none;fill-opacity:1;stroke:#200c00;stroke-width:0.264583;stroke-miterlimit:4;stroke-dasharray:none;stroke-opacity:1"
           d="M 57.791454,36.535727 C 56.532274,43.360167 53.304145,45.091054 59.952918,63.100827"
           id="path7301"
           sodipodi:nodetypes="cc" />
        <path
           style="font-variation-settings:'wght' 400;fill:none;fill-opacity:1;stroke:#200c00;stroke-width:0.264583;stroke-miterlimit:4;stroke-dasharray:none;stroke-opacity:1"
           d="M 50.191465,31.864174 C 54.401502,45.252337 52.327692,58.42937 50.191464,62.752204"
           id="path7436"
           sodipodi:nodetypes="cc" />
        <path
           style="font-variation-settings:'wght' 400;fill:none;fill-opacity:1;stroke:#200c00;stroke-width:0.264583;stroke-miterlimit:4;stroke-dasharray:none;stroke-opacity:1"
           d="M 54.305221,31.655 C 52.988521,50.005947 55.328772,61.905867 56.675859,63.100827"
           id="path7780"
           sodipodi:nodetypes="cc" />
      </g>
      <rect
         style="font-variation-settings:'wght' 400;fill:none;fill-opacity:1;stroke:#4db39c;stroke-width:1.25055;stroke-miterlimit:4;stroke-dasharray:none;stroke-opacity:1"
         id="rect8140"
         width="15.682786"
         height="15.682786"
         x="21.811253"
         y="0.62527341"
         ry="2.5" />
    </g>
  </g>
</svg>
