<?xml version="1.0" encoding="UTF-8"?>
<svg width="48px" height="48px" viewBox="0 0 48 48" version="1.1" xmlns="http://www.w3.org/2000/svg" xmlns:xlink="http://www.w3.org/1999/xlink">
    <!-- Generator: Sketch 53.1 (72631) - https://sketchapp.com -->
    <title>48 x 48 Icon Sage 50cloud</title>
    <desc>Created with Sketch.</desc>
    <g id="48-x-48-Icon-Sage-50cloud" stroke="none" stroke-width="1" fill="none" fill-rule="evenodd">
        <path d="M24,0 L24,0 C10.74525,0 0,10.74525 0,24 L0,48 L24,48 C37.25475,48 48,37.25475 48,24 C48,10.74525 37.25475,0 24,0" id="Fill-1" fill="#00A376"></path>
        <g id="Group-2" transform="translate(15.000000, 18.000000)" fill="#FFFFFF">
            <path d="M4.20872051,4.27541524 C5.3659757,4.27541524 6.28734811,4.5963011 6.97212294,5.2387796 C7.65689778,5.8812581 8,6.7612204 8,7.87866651 C8,9.20108376 7.58756254,10.2181647 6.76340243,10.9313229 C5.93924232,11.6430675 4.75982845,12 3.22587563,12 C1.89421015,12 0.81915654,11.7858405 0,11.3596419 L0,9.19825657 C0.431022159,9.42513841 0.933523946,9.61031924 1.50679056,9.75309224 C2.07934239,9.89586524 2.62258756,9.96725174 3.13581129,9.96725174 C4.68048606,9.96725174 5.45318084,9.34102957 5.45318084,8.08929202 C5.45318084,6.89551184 4.6533238,6.29968194 3.05432452,6.29968194 C2.76411723,6.29968194 2.44531808,6.32795382 2.0964975,6.38449759 C1.74696212,6.44104135 1.4624732,6.50182589 1.24517513,6.56685122 L0.237312366,6.03251266 L0.687634024,0 L7.18084346,0 L7.18084346,2.12180469 L2.90707648,2.12180469 L2.68548964,4.44504653 L2.97283774,4.38850277 C3.30450322,4.31287549 3.71765547,4.27541524 4.20872051,4.27541524" id="Fill-3"></path>
            <path d="M12.4033484,6.01183157 C12.4033484,7.44206009 12.5249851,8.4665352 12.7668916,9.08525693 C13.0101649,9.70467463 13.4181259,10.0143835 13.9921415,10.0143835 C14.5559067,10.0143835 14.9631844,9.70049878 15.2132912,9.07342536 C15.4640813,8.44704791 15.5891347,7.42605266 15.5891347,6.01183157 C15.5891347,4.58160306 15.4627146,3.55504002 15.2091911,2.93005452 C14.9563509,2.30576499 14.5511233,1.99396822 13.9921415,1.99396822 C13.4235927,1.99396822 13.016315,2.30576499 12.7709917,2.93005452 C12.5256684,3.55504002 12.4033484,4.58160306 12.4033484,6.01183157 M18,6.01183157 C18,8.04825426 17.6726745,9.55504002 17.0180234,10.5328848 C16.362689,11.5100336 15.3540617,12 13.9921415,12 C12.6719057,12 11.6769454,11.4940262 11.0058939,10.4848625 C10.3355258,9.4750029 10,7.98422457 10,6.01183157 C10,3.95452964 10.3259588,2.43939218 10.9785598,1.46363531 C11.6304775,0.487878436 12.635688,0 13.9921415,0 C15.3123772,0 16.3107542,0.51084561 16.9865892,1.53114488 C17.6624242,2.55144415 18,4.04570235 18,6.01183157" id="Fill-5"></path>
        </g>
    </g>
</svg>